<?xml version="1.0" standalone="no"?>
 <!DOCTYPE svg PUBLIC "-//W3C//DTD SVG 1.1//EN" 
 "http://www.w3.org/Graphics/SVG/1.1/DTD/svg11.dtd"> 
<svg
  xmlns:svg="http://www.w3.org/2000/svg"
  xmlns="http://www.w3.org/2000/svg"
  xmlns:xlink="http://www.w3.org/1999/xlink"
  version="1.1"
  width="29.700220cm" height="21.000720cm" viewBox="0 0 116930 82680">
<title>SVG Picture created as sw-F_Cu.svg date 2021/12/05 21:43:58 </title>
  <desc>Picture generated by PCBNEW </desc>
<g style="fill:#000000; fill-opacity:1;stroke:#000000; stroke-opacity:1;
stroke-linecap:round; stroke-linejoin:round;"
 transform="translate(0 0) scale(1 1)">
</g>
<g style="fill:#000000; fill-opacity:0.0; 
stroke:#000000; stroke-width:-0.000393701; stroke-opacity:1; 
stroke-linecap:round; stroke-linejoin:round;">
</g>
<g style="fill:#000000; fill-opacity:0.0; 
stroke:#000000; stroke-width:19.685; stroke-opacity:1; 
stroke-linecap:round; stroke-linejoin:round;">
<path d="M100930 13000
L100930 6625
" />
</g>
<g style="fill:#000000; fill-opacity:0.0; 
stroke:#000000; stroke-width:59.0551; stroke-opacity:1; 
stroke-linecap:round; stroke-linejoin:round;">
<text x="91339.4" y="7696.85"
textLength="1145.39" font-size="524.934" lengthAdjust="spacingAndGlyphs"
text-anchor="middle" opacity="0">gnd</text>
<path d="M91611 7415
L91611 7734
L91630 7771
L91648 7790
L91686 7809
L91742 7809
L91780 7790
" />
<path d="M91611 7659
L91648 7678
L91723 7678
L91761 7659
L91780 7640
L91798 7603
L91798 7490
L91780 7453
L91761 7434
L91723 7415
L91648 7415
L91611 7434
" />
<path d="M91423 7415
L91423 7678
" />
<path d="M91423 7453
L91405 7434
L91367 7415
L91311 7415
L91273 7434
L91255 7471
L91255 7678
" />
<path d="M90898 7678
L90898 7284
" />
<path d="M90898 7659
L90936 7678
L91011 7678
L91048 7659
L91067 7640
L91086 7603
L91086 7490
L91067 7453
L91048 7434
L91011 7415
L90936 7415
L90898 7434
" />
<text x="91182" y="7204.72"
textLength="1501.59" font-size="524.934" lengthAdjust="spacingAndGlyphs"
text-anchor="middle" opacity="0">out+</text>
<path d="M91744 7185
L91781 7167
L91800 7148
L91819 7110
L91819 6998
L91800 6961
L91781 6942
L91744 6923
L91688 6923
L91650 6942
L91631 6961
L91613 6998
L91613 7110
L91631 7148
L91650 7167
L91688 7185
L91744 7185
" />
<path d="M91275 6923
L91275 7185
" />
<path d="M91444 6923
L91444 7129
L91425 7167
L91388 7185
L91331 7185
L91294 7167
L91275 7148
" />
<path d="M91144 6923
L90994 6923
" />
<path d="M91088 6792
L91088 7129
L91069 7167
L91031 7185
L90994 7185
" />
<path d="M90863 7035
L90563 7035
" />
<path d="M90713 7185
L90713 6886
" />
<text x="97392.6" y="11072.8"
textLength="1145.39" font-size="524.934" lengthAdjust="spacingAndGlyphs"
text-anchor="middle" opacity="0">gnd</text>
<path d="M97664 10791
L97664 11110
L97683 11147
L97701 11166
L97739 11185
L97795 11185
L97833 11166
" />
<path d="M97664 11035
L97701 11054
L97776 11054
L97814 11035
L97833 11016
L97851 10979
L97851 10866
L97833 10829
L97814 10810
L97776 10791
L97701 10791
L97664 10810
" />
<path d="M97476 10791
L97476 11054
" />
<path d="M97476 10829
L97458 10810
L97420 10791
L97364 10791
L97326 10810
L97308 10847
L97308 11054
" />
<path d="M96952 11054
L96952 10660
" />
<path d="M96952 11035
L96989 11054
L97064 11054
L97102 11035
L97120 11016
L97139 10979
L97139 10866
L97120 10829
L97102 10810
L97064 10791
L96989 10791
L96952 10810
" />
<text x="96792.2" y="10570.9"
textLength="1595.33" font-size="524.934" lengthAdjust="spacingAndGlyphs"
text-anchor="middle" opacity="0">usb+</text>
<path d="M97289 10289
L97289 10552
" />
<path d="M97457 10289
L97457 10495
L97438 10533
L97401 10552
L97345 10552
L97307 10533
L97289 10514
" />
<path d="M97120 10533
L97082 10552
L97007 10552
L96970 10533
L96951 10495
L96951 10477
L96970 10439
L97007 10420
L97064 10420
L97101 10402
L97120 10364
L97120 10345
L97101 10308
L97064 10289
L97007 10289
L96970 10308
" />
<path d="M96782 10552
L96782 10158
" />
<path d="M96782 10308
L96745 10289
L96670 10289
L96632 10308
L96614 10327
L96595 10364
L96595 10477
L96614 10514
L96632 10533
L96670 10552
L96745 10552
L96782 10533
" />
<path d="M96426 10402
L96126 10402
" />
<path d="M96276 10552
L96276 10252
" />
<text x="97825.7" y="8927.17"
textLength="1145.39" font-size="524.934" lengthAdjust="spacingAndGlyphs"
text-anchor="middle" opacity="0">gnd</text>
<path d="M98097 8645
L98097 8964
L98116 9002
L98135 9020
L98172 9039
L98228 9039
L98266 9020
" />
<path d="M98097 8889
L98135 8908
L98209 8908
L98247 8889
L98266 8870
L98284 8833
L98284 8720
L98266 8683
L98247 8664
L98209 8645
L98135 8645
L98097 8664
" />
<path d="M97910 8645
L97910 8908
" />
<path d="M97910 8683
L97891 8664
L97853 8645
L97797 8645
L97760 8664
L97741 8702
L97741 8908
" />
<path d="M97385 8908
L97385 8514
" />
<path d="M97385 8889
L97422 8908
L97497 8908
L97535 8889
L97553 8870
L97572 8833
L97572 8720
L97553 8683
L97535 8664
L97497 8645
L97422 8645
L97385 8664
" />
<text x="97697.7" y="8307.09"
textLength="1501.59" font-size="524.934" lengthAdjust="spacingAndGlyphs"
text-anchor="middle" opacity="0">bat+</text>
<path d="M98316 8288
L98316 7894
" />
<path d="M98316 8044
L98278 8025
L98203 8025
L98166 8044
L98147 8063
L98128 8100
L98128 8213
L98147 8250
L98166 8269
L98203 8288
L98278 8288
L98316 8269
" />
<path d="M97791 8288
L97791 8082
L97810 8044
L97847 8025
L97922 8025
L97960 8044
" />
<path d="M97791 8269
L97828 8288
L97922 8288
L97960 8269
L97978 8232
L97978 8194
L97960 8157
L97922 8138
L97828 8138
L97791 8119
" />
<path d="M97660 8025
L97510 8025
" />
<path d="M97603 7894
L97603 8232
L97585 8269
L97547 8288
L97510 8288
" />
<path d="M97379 8138
L97079 8138
" />
<path d="M97229 8288
L97229 7988
" />
</g>
<g style="fill:#000000; fill-opacity:0.0; 
stroke:#000000; stroke-width:19.685; stroke-opacity:1; 
stroke-linecap:round; stroke-linejoin:round;">
<path d="M89330 13000
L100930 13000
" />
<path d="M89330 6625
L89330 13000
" />
<path d="M100930 6625
L89330 6625
" />
<g >
</g>
<g style="fill:#000000; fill-opacity:0.0; 
stroke:#000000; stroke-width:0; stroke-opacity:1; 
stroke-linecap:round; stroke-linejoin:round;">
</g>
<g style="fill:#000000; fill-opacity:1.0; 
stroke:#000000; stroke-width:0; stroke-opacity:1; 
stroke-linecap:round; stroke-linejoin:round;">
<path style="fill:#000000; fill-opacity:1.0; 
stroke:#000000; stroke-width:0; stroke-opacity:1; 
stroke-linecap:round; stroke-linejoin:round;fill-rule:evenodd;"
d="M 95224.3,11079.8
95214.7,11081.2
95205.4,11083.6
95196.3,11086.8
95187.5,11091
95179.3,11095.9
95171.5,11101.7
95164.3,11108.2
95157.9,11115.3
95152.1,11123.1
95147.1,11131.4
95143,11140.1
95139.8,11149.2
95137.4,11158.6
95136,11168.1
95135.5,11177.8
95135.5,11492.7
95136,11502.4
95137.4,11511.9
95139.8,11521.3
95143,11530.4
95147.1,11539.1
95152.1,11547.4
95157.9,11555.2
95164.3,11562.3
95171.5,11568.8
95179.3,11574.6
95187.5,11579.5
95196.3,11583.6
95205.4,11586.9
95214.7,11589.3
95224.3,11590.7
95233.9,11591.1
95726.1,11591.1
95735.7,11590.7
95745.3,11589.3
95754.6,11586.9
95763.7,11583.6
95772.5,11579.5
95780.7,11574.6
95788.5,11568.8
95795.7,11562.3
95802.1,11555.2
95807.9,11547.4
95812.9,11539.1
95817,11530.4
95820.2,11521.3
95822.6,11511.9
95824,11502.4
95824.5,11492.7
95824.5,11177.8
95824,11168.1
95822.6,11158.6
95820.2,11149.2
95817,11140.1
95812.9,11131.4
95807.9,11123.1
95802.1,11115.3
95795.7,11108.2
95788.5,11101.7
95780.7,11095.9
95772.5,11091
95763.7,11086.8
95754.6,11083.6
95745.3,11081.2
95735.7,11079.8
95726.1,11079.3
95233.9,11079.3
Z" /> 
<path style="fill:#000000; fill-opacity:1.0; 
stroke:#000000; stroke-width:0; stroke-opacity:1; 
stroke-linecap:round; stroke-linejoin:round;fill-rule:evenodd;"
d="M 95224.3,9859.33
95214.7,9860.75
95205.4,9863.1
95196.3,9866.35
95187.5,9870.48
95179.3,9875.45
95171.5,9881.2
95164.3,9887.69
95157.9,9894.84
95152.1,9902.6
95147.1,9910.89
95143,9919.62
95139.8,9928.71
95137.4,9938.08
95136,9947.64
95135.5,9957.28
95135.5,10272.2
95136,10281.9
95137.4,10291.4
95139.8,10300.8
95143,10309.9
95147.1,10318.6
95152.1,10326.9
95157.9,10334.7
95164.3,10341.8
95171.5,10348.3
95179.3,10354.1
95187.5,10359
95196.3,10363.2
95205.4,10366.4
95214.7,10368.8
95224.3,10370.2
95233.9,10370.7
95726.1,10370.7
95735.7,10370.2
95745.3,10368.8
95754.6,10366.4
95763.7,10363.2
95772.5,10359
95780.7,10354.1
95788.5,10348.3
95795.7,10341.8
95802.1,10334.7
95807.9,10326.9
95812.9,10318.6
95817,10309.9
95820.2,10300.8
95822.6,10291.4
95824,10281.9
95824.5,10272.2
95824.5,9957.28
95824,9947.64
95822.6,9938.08
95820.2,9928.71
95817,9919.62
95812.9,9910.89
95807.9,9902.6
95802.1,9894.84
95795.7,9887.69
95788.5,9881.2
95780.7,9875.45
95772.5,9870.48
95763.7,9866.35
95754.6,9863.1
95745.3,9860.75
95735.7,9859.33
95726.1,9858.86
95233.9,9858.86
Z" /> 
</g>
<g >
</g>
<g style="fill:#000000; fill-opacity:1.0; 
stroke:#000000; stroke-width:0; stroke-opacity:1; 
stroke-linecap:round; stroke-linejoin:round;">
<path style="fill:#000000; fill-opacity:1.0; 
stroke:#000000; stroke-width:0; stroke-opacity:1; 
stroke-linecap:round; stroke-linejoin:round;fill-rule:evenodd;"
d="M 94972.5,7758.46
95287.5,7758.46
95287.5,7404.13
94972.5,7404.13
Z" /> 
<path style="fill:#000000; fill-opacity:1.0; 
stroke:#000000; stroke-width:0; stroke-opacity:1; 
stroke-linecap:round; stroke-linejoin:round;fill-rule:evenodd;"
d="M 94598.5,8545.87
94913.5,8545.87
94913.5,8191.54
94598.5,8191.54
Z" /> 
<path style="fill:#000000; fill-opacity:1.0; 
stroke:#000000; stroke-width:0; stroke-opacity:1; 
stroke-linecap:round; stroke-linejoin:round;fill-rule:evenodd;"
d="M 95346.5,8545.87
95661.5,8545.87
95661.5,8191.54
95346.5,8191.54
Z" /> 
</g>
<g >
</g>
<g style="fill:#000000; fill-opacity:1.0; 
stroke:#000000; stroke-width:0; stroke-opacity:1; 
stroke-linecap:round; stroke-linejoin:round;">
<path style="fill:#000000; fill-opacity:1.0; 
stroke:#000000; stroke-width:0; stroke-opacity:1; 
stroke-linecap:round; stroke-linejoin:round;fill-rule:evenodd;"
d="M 89695.4,8815.35
89695.4,9484.65
90364.6,9484.65
90364.6,8815.35
Z" /> 
<circle cx="90030" cy="8150" r="334.646" /> 
</g>
<g >
</g>
<g style="fill:#000000; fill-opacity:1.0; 
stroke:#000000; stroke-width:0; stroke-opacity:1; 
stroke-linecap:round; stroke-linejoin:round;">
<circle cx="99230" cy="11350" r="334.646" /> 
<path style="fill:#000000; fill-opacity:1.0; 
stroke:#000000; stroke-width:0; stroke-opacity:1; 
stroke-linecap:round; stroke-linejoin:round;fill-rule:evenodd;"
d="M 99564.6,10684.6
99564.6,10015.4
98895.4,10015.4
98895.4,10684.6
Z" /> 
</g>
<g >
</g>
<g style="fill:#000000; fill-opacity:1.0; 
stroke:#000000; stroke-width:0; stroke-opacity:1; 
stroke-linecap:round; stroke-linejoin:round;">
<circle cx="99205" cy="8575" r="334.646" /> 
<path style="fill:#000000; fill-opacity:1.0; 
stroke:#000000; stroke-width:0; stroke-opacity:1; 
stroke-linecap:round; stroke-linejoin:round;fill-rule:evenodd;"
d="M 99539.6,7909.65
99539.6,7240.35
98870.4,7240.35
98870.4,7909.65
Z" /> 
</g>
<g >
</g>
<g style="fill:#000000; fill-opacity:1.0; 
stroke:#000000; stroke-width:0; stroke-opacity:1; 
stroke-linecap:round; stroke-linejoin:round;">
<path style="fill:#000000; fill-opacity:1.0; 
stroke:#000000; stroke-width:0; stroke-opacity:1; 
stroke-linecap:round; stroke-linejoin:round;fill-rule:evenodd;"
d="M 93204,10347.2
93204,11252.8
94582,11252.8
94582,10347.2
Z" /> 
<path style="fill:#000000; fill-opacity:1.0; 
stroke:#000000; stroke-width:0; stroke-opacity:1; 
stroke-linecap:round; stroke-linejoin:round;fill-rule:evenodd;"
d="M 91078,10347.2
91078,11252.8
92456,11252.8
92456,10347.2
Z" /> 
</g>
<g >
</g>
<g >
</g>
<g style="fill:#000000; fill-opacity:1.0; 
stroke:#000000; stroke-width:0; stroke-opacity:1; 
stroke-linecap:round; stroke-linejoin:round;">
</g>
<g style="fill:#000000; fill-opacity:1.0; 
stroke:#000000; stroke-width:551.181; stroke-opacity:1; 
stroke-linecap:round; stroke-linejoin:round;">
</g>
<g style="fill:#000000; fill-opacity:0.0; 
stroke:#000000; stroke-width:551.181; stroke-opacity:1; 
stroke-linecap:round; stroke-linejoin:round;">
<path d="M95504 10090
L95480 10114
" />
<path d="M98004 10350
L97354 9700
" />
<path d="M99230 10350
L98004 10350
" />
<path d="M95480 10114
L95480 9950
" />
<path d="M95730 9700
L97354 9700
" />
<path d="M95480 9950
L95730 9700
" />
<path d="M93892 10800
L93892 10312
" />
<path d="M93892 10312
L94480 9724
" />
<path d="M95504 9724
L95504 10090
" />
<path d="M94480 9724
L95504 9724
" />
<path d="M95504 8368
L95504 9724
" />
<path d="M94755 8368
L94755 8649
" />
<path d="M94755 8649
L94680 8725
" />
<path d="M94680 8725
L91655 8725
" />
<path d="M91655 8725
L91655 8555
" />
<path d="M90091 8211
L90030 8150
" />
<path d="M91311 8211
L90091 8211
" />
<path d="M91655 8555
L91311 8211
" />
<path d="M91655 10687
L91767 10800
" />
<path d="M91655 8555
L91655 10687
" />
</g>
<g style="fill:#000000; fill-opacity:0.0; 
stroke:#000000; stroke-width:393.701; stroke-opacity:1; 
stroke-linecap:round; stroke-linejoin:round;">
<path d="M99230 11350
L98532 12047
" />
<path d="M98532 12047
L95827 12047
" />
<path d="M95480 11699
L95480 11335
" />
<path d="M95827 12047
L95480 11699
" />
<path d="M95480 11335
L95480 11686
" />
<path d="M95480 11686
L95040 12125
" />
<path d="M95040 12125
L90788 12125
" />
<path d="M90030 11367
L90030 9150
" />
<path d="M90788 12125
L90030 11367
" />
<path d="M99205 8575
L100357 8575
" />
<path d="M100357 8575
L100683 8901
" />
<path d="M100683 8901
L100683 11167
" />
<path d="M100394 8976
L100394 10944
" />
<path d="M100394 10944
L99989 11350
" />
<path d="M99989 11350
L99230 11350
" />
<path d="M99205 8575
L99993 8575
" />
<path d="M99993 8575
L100394 8976
" />
</g>
<g style="fill:#000000; fill-opacity:0.0; 
stroke:#000000; stroke-width:551.181; stroke-opacity:1; 
stroke-linecap:round; stroke-linejoin:round;">
<path d="M99205 7575
L98905 7275
" />
<path d="M98905 7275
L95230 7275
" />
<path d="M95130 7375
L95130 7581
" />
<path d="M95230 7275
L95130 7375
" />
</g>
<g >
</g>
<g style="fill:#000000; fill-opacity:0.0; 
stroke:#000000; stroke-width:551.181; stroke-opacity:1; 
stroke-linecap:round; stroke-linejoin:round;">
<g >
</g>
<g style="fill:#000000; fill-opacity:1.0; 
stroke:#000000; stroke-width:100; stroke-opacity:1; 
stroke-linecap:round; stroke-linejoin:round;">
<path style="fill:#000000; fill-opacity:1.0; 
stroke:#000000; stroke-width:100; stroke-opacity:1; 
stroke-linecap:round; stroke-linejoin:round;fill-rule:evenodd;"
d="M 99797.5,11209.5
99749.7,11300
99280,11300
99280,11292.1
99180,11292.1
99180,11300
98710.3,11300
98662.5,11209.5
98679.8,11152.4
98045.8,11152.4
98045.8,11316.7
96739.4,11316.7
96739.4,11152.4
96075.1,11152.4
96074.5,11222.7
96012,11285.2
95530,11285.2
95530,11277.4
95430,11277.4
95430,11285.2
95422.1,11285.2
95422.1,11385.2
95430,11385.2
95430,11778.6
95367.5,11841.1
95135.5,11842.4
95090.2,11837.9
95090.2,12940.2
100870,12940.2
100870,11490.5
99797.5,11490.5
99779.9,11548.5
99730.6,11651.9
99662.1,11743.8
99577,11820.5
99478.5,11879.2
99370.5,11917.5
99280,11870
99280,11400
99180,11400
99180,11870
99089.5,11917.5
98981.5,11879.2
98883,11820.5
98797.9,11743.8
98729.4,11651.9
98700.4,11591.1
96075.7,11591.1
96070.9,11640.2
96056.6,11687.3
96033.4,11730.7
96002.1,11768.8
95964.1,11800
95920.6,11823.2
95873.5,11837.5
95824.5,11842.4
95592.5,11841.1
95530,11778.6
95530,11385.2
96012,11385.2
96074.5,11447.7
96075.7,11591.1
98700.4,11591.1
98680.1,11548.5
98662.5,11490.5
98710.3,11400
99180,11400
99280,11400
99749.7,11400
99797.5,11490.5
100870,11490.5
100870,11152.4
99780.2,11152.4
Z" /> 
</g>
</g>
<g style="fill:#000000; fill-opacity:1.0; 
stroke:#000000; stroke-width:100; stroke-opacity:1; 
stroke-linecap:round; stroke-linejoin:round;">
<g >
<path style="fill:#000000; fill-opacity:1.0; 
stroke:#000000; stroke-width:100; stroke-opacity:1; 
stroke-linecap:round; stroke-linejoin:round;fill-rule:evenodd;"
d="M 89389.8,12940.2
94990.2,12940.2
94990.2,11795.3
94957.9,11768.8
94926.6,11730.7
94903.4,11687.3
94889.1,11640.2
94887.6,11624.8
89389.8,11624.8
Z" /> 
</g>
</g>
<g style="fill:#000000; fill-opacity:1.0; 
stroke:#000000; stroke-width:100; stroke-opacity:1; 
stroke-linecap:round; stroke-linejoin:round;">
<g >
<path style="fill:#000000; fill-opacity:1.0; 
stroke:#000000; stroke-width:100; stroke-opacity:1; 
stroke-linecap:round; stroke-linejoin:round;fill-rule:evenodd;"
d="M 94991.8,11820.1
96023.7,11820.1
96023.7,11103.1
94991.8,11103.1
Z" /> 
</g>
</g>
<g style="fill:#000000; fill-opacity:1.0; 
stroke:#000000; stroke-width:100; stroke-opacity:1; 
stroke-linecap:round; stroke-linejoin:round;">
<g >
<path style="fill:#000000; fill-opacity:1.0; 
stroke:#000000; stroke-width:100; stroke-opacity:1; 
stroke-linecap:round; stroke-linejoin:round;fill-rule:evenodd;"
d="M 89391.4,12940.2
90511.9,12940.2
90511.9,9565.79
90505.1,9578.49
90484.1,9604.09
90458.5,9625.1
90429.3,9640.71
90397.6,9650.32
90364.6,9653.57
90179.5,9652.76
90137.5,9610.73
90137.5,9257.48
89922.5,9257.48
89922.5,9610.73
89880.5,9652.76
89695.4,9653.57
89662.4,9650.32
89630.7,9640.71
89601.5,9625.1
89575.9,9604.09
89554.9,9578.49
89539.3,9549.29
89529.7,9517.6
89526.4,9484.65
89527.2,9299.51
89569.3,9257.48
89922.5,9257.48
90137.5,9257.48
90145.4,9257.48
90145.4,9042.52
90137.5,9042.52
90137.5,9034.65
89922.5,9034.65
89922.5,9042.52
89569.3,9042.52
89527.2,9000.49
89526.5,8829.53
89391.4,8829.53
Z" /> 
</g>
</g>
</g>
<g style="fill:#FFFFFF; fill-opacity:1.0; 
stroke:#FFFFFF; stroke-width:100; stroke-opacity:1; 
stroke-linecap:round; stroke-linejoin:round;">
</g>
<g style="fill:#FFFFFF; fill-opacity:1.0; 
stroke:#FFFFFF; stroke-width:0; stroke-opacity:1; 
stroke-linecap:round; stroke-linejoin:round;">
<circle cx="90030" cy="9150" r="68.8976" /> 
</g>
<g style="fill:#FFFFFF; fill-opacity:1.0; 
stroke:#FFFFFF; stroke-width:39.3701; stroke-opacity:1; 
stroke-linecap:round; stroke-linejoin:round;">
</g>
<g style="fill:#FFFFFF; fill-opacity:1.0; 
stroke:#FFFFFF; stroke-width:0; stroke-opacity:1; 
stroke-linecap:round; stroke-linejoin:round;">
<circle cx="90030" cy="8150" r="68.8976" /> 
</g>
<g style="fill:#FFFFFF; fill-opacity:1.0; 
stroke:#FFFFFF; stroke-width:39.3701; stroke-opacity:1; 
stroke-linecap:round; stroke-linejoin:round;">
</g>
<g style="fill:#FFFFFF; fill-opacity:1.0; 
stroke:#FFFFFF; stroke-width:0; stroke-opacity:1; 
stroke-linecap:round; stroke-linejoin:round;">
<circle cx="99230" cy="11350" r="68.8976" /> 
</g>
<g style="fill:#FFFFFF; fill-opacity:1.0; 
stroke:#FFFFFF; stroke-width:39.3701; stroke-opacity:1; 
stroke-linecap:round; stroke-linejoin:round;">
</g>
<g style="fill:#FFFFFF; fill-opacity:1.0; 
stroke:#FFFFFF; stroke-width:0; stroke-opacity:1; 
stroke-linecap:round; stroke-linejoin:round;">
<circle cx="99230" cy="10350" r="68.8976" /> 
</g>
<g style="fill:#FFFFFF; fill-opacity:1.0; 
stroke:#FFFFFF; stroke-width:39.3701; stroke-opacity:1; 
stroke-linecap:round; stroke-linejoin:round;">
</g>
<g style="fill:#FFFFFF; fill-opacity:1.0; 
stroke:#FFFFFF; stroke-width:0; stroke-opacity:1; 
stroke-linecap:round; stroke-linejoin:round;">
<circle cx="99205" cy="8575" r="68.8976" /> 
</g>
<g style="fill:#FFFFFF; fill-opacity:1.0; 
stroke:#FFFFFF; stroke-width:39.3701; stroke-opacity:1; 
stroke-linecap:round; stroke-linejoin:round;">
</g>
<g style="fill:#FFFFFF; fill-opacity:1.0; 
stroke:#FFFFFF; stroke-width:0; stroke-opacity:1; 
stroke-linecap:round; stroke-linejoin:round;">
<circle cx="99205" cy="7575" r="68.8976" /> 
</g>
<g style="fill:#FFFFFF; fill-opacity:1.0; 
stroke:#FFFFFF; stroke-width:39.3701; stroke-opacity:1; 
stroke-linecap:round; stroke-linejoin:round;">
</g>
<g style="fill:#000000; fill-opacity:1.0; 
stroke:#000000; stroke-width:39.3701; stroke-opacity:1; 
stroke-linecap:round; stroke-linejoin:round;">
</g> 
</svg>
